<?xml version="1.0" encoding="UTF-8"?>
<!DOCTYPE svg PUBLIC "-//W3C//DTD SVG 1.1//EN" "http://www.w3.org/Graphics/SVG/1.1/DTD/svg11.dtd">
<!-- Creator: CorelDRAW X7 -->
<svg xmlns="http://www.w3.org/2000/svg" xml:space="preserve" width="8.26772in" height="1.43129in" version="1.1" style="shape-rendering:geometricPrecision; text-rendering:geometricPrecision; image-rendering:optimizeQuality; fill-rule:evenodd; clip-rule:evenodd"
viewBox="0 0 8268 1431"
 xmlns:xlink="http://www.w3.org/1999/xlink">
 <defs>
  <style type="text/css">
   <![CDATA[
    .str0 {stroke:#FEFEFE;stroke-width:27.7756}
    .fil2 {fill:#FEFEFE}
    .fil3 {fill:#373435}
    .fil0 {fill:#D89739;fill-rule:nonzero}
    .fil1 {fill:#0077BD;fill-rule:nonzero}
    .fil4 {fill:#201E1E;fill-rule:nonzero}
   ]]>
  </style>
 </defs>
 <g id="Layer_x0020_1">
  <metadata id="CorelCorpID_0Corel-Layer"/>
  <g id="_2617158693776">
   <g>
    <polygon class="fil0" points="5308,304 5424,207 5635,344 5539,110 5651,16 5772,410 5673,493 "/>
    <g>
     <polygon class="fil1" points="5705,0 5856,0 5930,241 6006,0 6153,0 5992,380 5863,380 "/>
     <polygon class="fil1" points="5199,792 5225,643 5475,612 5251,495 5277,351 5623,575 5601,702 "/>
     <polygon class="fil1" points="5429,1236 5354,1105 5525,920 5279,975 5205,848 5615,797 5679,909 "/>
     <polygon class="fil1" points="5891,1428 5749,1376 5762,1125 5608,1325 5470,1275 5751,973 5873,1017 "/>
     <polygon class="fil1" points="6368,1278 6226,1330 6074,1129 6085,1381 5947,1431 5968,1019 6090,975 "/>
     <polygon class="fil1" points="6637,857 6562,988 6316,931 6487,1118 6413,1245 6165,915 6229,804 "/>
     <polygon class="fil1" points="6573,361 6599,510 6375,624 6625,658 6651,802 6248,709 6226,582 "/>
     <polygon class="fil1" points="6205,23 6321,120 6222,352 6435,216 6548,310 6180,498 6081,415 "/>
     <polygon class="fil1" points="5308,304 5424,207 5635,344 5539,110 5651,16 5772,410 5673,493 "/>
    </g>
    <path class="fil2" d="M5930 361c186,0 336,151 336,336 0,186 -150,337 -336,337 -186,0 -336,-151 -336,-337 0,-185 150,-336 336,-336z"/>
    <path class="fil3" d="M5930 456c133,0 241,108 241,241 0,134 -108,242 -241,242 -134,0 -242,-108 -242,-242 0,-133 108,-241 242,-241z"/>
    <path class="fil2" d="M5930 567c72,0 131,58 131,130 0,73 -59,131 -131,131 -72,0 -131,-58 -131,-131 0,-72 59,-130 131,-130z"/>
   </g>
   <path class="fil4 str0" d="M404 81l360 0 255 917 265 -917 348 0 -444 1325 -375 0 -409 -1325zm1312 1325l0 -1325 728 0 0 294 -401 0 0 216 401 0 0 303 -401 0 0 227 401 0 0 285 -728 0zm943 0l0 -1325 267 0 535 791 0 -791 300 0 0 1325 -282 0 -509 -802 0 802 -311 0zm2534 -490l-342 0c-38,65 -79,111 -123,138 -44,28 -99,41 -164,41 -98,0 -181,-33 -249,-100 -67,-68 -101,-150 -101,-249 0,-67 15,-127 46,-181 31,-55 72,-98 124,-130 53,-31 110,-47 173,-47 133,0 231,64 291,192l338 0c-16,-77 -43,-148 -81,-213 -39,-65 -86,-121 -141,-167 -55,-46 -118,-81 -187,-106 -70,-26 -144,-38 -223,-38 -122,0 -234,30 -337,92 -103,62 -184,147 -244,253 -60,107 -90,223 -90,349 0,124 30,239 91,343 60,104 143,187 247,247 106,61 220,91 343,91 104,0 200,-21 289,-64 90,-44 164,-104 223,-183 61,-78 99,-167 117,-268z"/>
   <polygon class="fil4 str0" points="6762,1406 6762,81 7029,81 7564,872 7564,81 7864,81 7864,1406 7582,1406 7073,604 7073,1406 "/>
  </g>
 </g>
</svg>
